<?xml version="1.0" standalone="no"?><!DOCTYPE svg PUBLIC "-//W3C//DTD SVG 1.1//EN" "http://www.w3.org/Graphics/SVG/1.1/DTD/svg11.dtd"><svg t="1704396154234" class="icon" viewBox="0 0 1024 1024" version="1.1" xmlns="http://www.w3.org/2000/svg" p-id="4381" xmlns:xlink="http://www.w3.org/1999/xlink" width="64" height="64"><path d="M512 0l448 160v329.216a512 512 0 0 1-296.384 464.4L512 1024l-151.616-70.4A512 512 0 0 1 64 489.232V160L512 0z m0 135.92l-320 114.288v239.008a384 384 0 0 0 222.288 348.304L512 882.88l97.712-45.36A384 384 0 0 0 832 489.216V250.208L512 135.92z m171.648 167.408l90.512 90.512L480 688l-90.512-90.512 0.448-0.464-113.648-113.648 90.512-90.496 113.648 113.648 203.2-203.2z" fill="#2c2c2c" p-id="4382"></path></svg>